<svg width="17" height="20" viewBox="0 0 17 20" fill="none" xmlns="http://www.w3.org/2000/svg">
<path d="M16.23 6.94092C16.1393 6.99454 13.9797 8.12611 13.9797 10.6351C14.0814 13.4964 16.705 14.4998 16.75 14.4998C16.705 14.5535 16.3539 15.8668 15.3139 17.2435C14.4886 18.4294 13.5725 19.625 12.1814 19.625C10.8582 19.625 10.3832 18.8346 8.85642 18.8346C7.21678 18.8346 6.75285 19.625 5.49749 19.625C4.10641 19.625 3.12248 18.3653 2.25214 17.1905C1.12143 15.653 0.160361 13.2401 0.126433 10.9234C0.103568 9.69569 0.352869 8.48891 0.985712 7.46388C1.87892 6.03287 3.47357 5.06146 5.21499 5.02943C6.54927 4.98695 7.73678 5.8943 8.55107 5.8943C9.33143 5.8943 10.7904 5.02943 12.4411 5.02943C13.1536 5.03012 15.0536 5.23276 16.23 6.94092ZM8.43822 4.78431C8.20072 3.66318 8.85642 2.54205 9.46714 1.8269C10.2475 0.962026 11.48 0.375 12.5428 0.375C12.6107 1.49613 12.1807 2.59567 11.4121 3.39648C10.7225 4.26135 9.535 4.91244 8.43822 4.78431Z" fill="url(#paint0_linear_358_7072)"/>
<defs>
<linearGradient id="paint0_linear_358_7072" x1="0.125" y1="-5.785" x2="8.7226" y2="19.5282" gradientUnits="userSpaceOnUse">
<stop stop-color="#C59845"/>
<stop offset="0.4875" stop-color="#F5DA82"/>
<stop offset="1" stop-color="#C59845"/>
</linearGradient>
</defs>
</svg>
