<svg width="11" height="13" viewBox="0 0 11 13" fill="none" xmlns="http://www.w3.org/2000/svg">
<mask id="path-1-inside-1_358_5987" fill="white">
<path fill-rule="evenodd" clip-rule="evenodd" d="M3.26051 12.9902L7.3403 12.9902L7.3403 5.19591H10.5996L5.2998 -0.000244141L0 5.19591H3.26051L3.26051 12.9902Z"/>
</mask>
<path fill-rule="evenodd" clip-rule="evenodd" d="M3.26051 12.9902L7.3403 12.9902L7.3403 5.19591H10.5996L5.2998 -0.000244141L0 5.19591H3.26051L3.26051 12.9902Z" fill="#16171A"/>
<path d="M7.3403 12.9902V13.7402H8.0903V12.9902H7.3403ZM3.26051 12.9902H2.51051V13.7402L3.26051 13.7402V12.9902ZM7.3403 5.19591V4.44591H6.5903V5.19591L7.3403 5.19591ZM10.5996 5.19591L10.5996 5.94591H12.4359L11.1247 4.66037L10.5996 5.19591ZM5.2998 -0.000244141L5.82487 -0.535786L5.2998 -1.05058L4.77474 -0.535786L5.2998 -0.000244141ZM0 5.19591L-0.525067 4.66037L-1.83625 5.94591L0 5.94591L0 5.19591ZM3.26051 5.19591H4.01051V4.44591L3.26051 4.44591V5.19591ZM7.3403 12.2402H3.26051V13.7402H7.3403V12.2402ZM6.5903 5.19591L6.5903 12.9902H8.0903V5.19591L6.5903 5.19591ZM10.5996 4.44591H7.3403V5.94591H10.5996L10.5996 4.44591ZM4.77474 0.535297L10.0745 5.73145L11.1247 4.66037L5.82487 -0.535786L4.77474 0.535297ZM0.525067 5.73145L5.82487 0.535297L4.77474 -0.535786L-0.525067 4.66037L0.525067 5.73145ZM3.26051 4.44591H0L0 5.94591H3.26051V4.44591ZM4.01051 12.9902L4.01051 5.19591H2.51051L2.51051 12.9902L4.01051 12.9902Z" fill="url(#paint0_linear_358_5987)" mask="url(#path-1-inside-1_358_5987)"/>
<defs>
<linearGradient id="paint0_linear_358_5987" x1="5.2998" y1="12.9902" x2="5.2998" y2="-0.000244141" gradientUnits="userSpaceOnUse">
<stop stop-color="#CAA946"/>
<stop offset="0.336458" stop-color="#F3F3F2"/>
<stop offset="0.940625" stop-color="#FFD861"/>
<stop offset="1" stop-color="#FFD861"/>
</linearGradient>
</defs>
</svg>
