<svg width="10" height="10" viewBox="0 0 10 10" fill="none" xmlns="http://www.w3.org/2000/svg">
<path d="M1.45837 7.1145V8.12492H8.54171V7.1145H1.45837ZM1.45837 2.49992H2.76046C2.72574 2.43742 2.69796 2.35929 2.67712 2.26554C2.65629 2.17179 2.64587 2.08672 2.64587 2.01034C2.64587 1.68337 2.76046 1.40545 2.98962 1.17656C3.21879 0.947689 3.4931 0.833252 3.81254 0.833252C4.02602 0.833252 4.22348 0.887071 4.40494 0.99471C4.58639 1.10235 4.72921 1.2395 4.83337 1.40617L5.00525 1.677L5.17712 1.40617C5.28824 1.23256 5.43065 1.09367 5.60436 0.989502C5.77808 0.885335 5.96516 0.833252 6.1656 0.833252C6.49967 0.833252 6.78129 0.946099 7.01046 1.17179C7.23962 1.39749 7.35421 1.67826 7.35421 2.0141C7.35421 2.08798 7.34553 2.16311 7.32817 2.2395C7.3108 2.31589 7.28476 2.4027 7.25004 2.49992H8.54171C8.70837 2.49992 8.85421 2.56242 8.97921 2.68742C9.10421 2.81242 9.16671 2.95825 9.16671 3.12492V8.12492C9.16671 8.29159 9.10421 8.43742 8.97921 8.56242C8.85421 8.68742 8.70837 8.74992 8.54171 8.74992H1.45837C1.29171 8.74992 1.14587 8.68742 1.02087 8.56242C0.895874 8.43742 0.833374 8.29159 0.833374 8.12492V3.12492C0.833374 2.95825 0.895874 2.81242 1.02087 2.68742C1.14587 2.56242 1.29171 2.49992 1.45837 2.49992ZM1.45837 5.99992H8.54171V3.12492H5.94796L6.98962 4.57284L6.48962 4.94784L5.00004 2.88534L3.51046 4.94784L3.01046 4.57284L4.05212 3.12492H1.45837V5.99992ZM3.82296 2.56242C3.97573 2.56242 4.10594 2.5086 4.21358 2.40096C4.32122 2.29332 4.37504 2.16311 4.37504 2.01034C4.37504 1.85756 4.32122 1.72735 4.21358 1.61971C4.10594 1.51207 3.97573 1.45825 3.82296 1.45825C3.67018 1.45825 3.53997 1.51207 3.43233 1.61971C3.32469 1.72735 3.27087 1.85756 3.27087 2.01034C3.27087 2.16311 3.32469 2.29332 3.43233 2.40096C3.53997 2.5086 3.67018 2.56242 3.82296 2.56242ZM6.16671 2.56242C6.32608 2.56242 6.45968 2.5086 6.56749 2.40096C6.6753 2.29332 6.72921 2.16311 6.72921 2.01034C6.72921 1.85756 6.6753 1.72735 6.56749 1.61971C6.45968 1.51207 6.32608 1.45825 6.16671 1.45825C6.02087 1.45825 5.89414 1.51207 5.7865 1.61971C5.67886 1.72735 5.62504 1.85756 5.62504 2.01034C5.62504 2.16311 5.67886 2.29332 5.7865 2.40096C5.89414 2.5086 6.02087 2.56242 6.16671 2.56242Z" fill="url(#paint0_linear_471_1702)"/>
<defs>
<linearGradient id="paint0_linear_471_1702" x1="8.33337" y1="3.07672" x2="5.39432" y2="8.94731" gradientUnits="userSpaceOnUse">
<stop stop-color="#DEB864"/>
<stop offset="0.503125" stop-color="white"/>
<stop offset="1" stop-color="#DEB864"/>
</linearGradient>
</defs>
</svg>
