<svg width="19" height="20" viewBox="0 0 19 20" fill="none" xmlns="http://www.w3.org/2000/svg">
<path d="M9.68314 8.30469V11.9824H14.6579C14.0089 14.2109 12.2403 15.8071 9.68314 15.8071C6.63923 15.8071 4.1697 13.2061 4.1697 10C4.1697 6.79395 6.63598 4.19287 9.68314 4.19287C11.0526 4.19287 12.302 4.72266 13.2658 5.59424L15.8359 2.88379C14.2133 1.3252 12.0521 0.375 9.68314 0.375C4.63375 0.375 0.541656 4.68506 0.541656 10C0.541656 15.3149 4.63375 19.625 9.68314 19.625C17.3546 19.625 19.0485 12.0679 18.2957 8.31836L9.68314 8.30469Z" fill="url(#paint0_linear_358_7074)"/>
<defs>
<linearGradient id="paint0_linear_358_7074" x1="2.69166" y1="-4.63" x2="10.4512" y2="19.3168" gradientUnits="userSpaceOnUse">
<stop stop-color="#C59845"/>
<stop offset="0.4875" stop-color="#F5DA82"/>
<stop offset="1" stop-color="#C59845"/>
</linearGradient>
</defs>
</svg>
