<svg width="51" height="51" viewBox="0 0 51 51" fill="none" xmlns="http://www.w3.org/2000/svg">
<ellipse cx="25.1023" cy="25.1942" rx="35" ry="0.5" transform="rotate(-45 25.1023 25.1942)" fill="url(#paint0_linear_77_74)"/>
<g filter="url(#filter0_d_77_74)">
<path d="M21.9589 19.1469C22.2409 19.1469 22.4689 19.2249 22.6429 19.3809C22.8229 19.5309 22.9699 19.7949 23.0839 20.1729C23.1979 20.5509 23.3239 21.4539 23.4619 22.8819C23.5999 24.3099 23.7499 25.2939 23.9119 25.8339C24.0619 25.4739 24.3679 24.8379 24.8299 23.9259C25.2919 23.0079 25.6699 22.2009 25.9639 21.5049C26.2579 20.8089 26.4049 20.2779 26.4049 19.9119C26.4049 19.7379 26.3689 19.5909 26.2969 19.4709C26.4409 19.2549 26.6479 19.1469 26.9179 19.1469C27.1879 19.1469 27.3229 19.2939 27.3229 19.5879C27.3229 19.8819 27.1759 20.3679 26.8819 21.0459C26.5879 21.7239 26.2669 22.4049 25.9189 23.0889C25.5709 23.7669 25.2499 24.4659 24.9559 25.1859C24.6619 25.8999 24.5149 26.4339 24.5149 26.7879C24.5149 26.8479 24.5209 26.9199 24.5329 27.0039C24.4369 27.1419 24.2449 27.2109 23.9569 27.2109C23.6689 27.2109 23.4559 27.1539 23.3179 27.0399C23.1799 26.9199 23.0599 26.6949 22.9579 26.3649C22.8559 26.0289 22.7359 25.1379 22.5979 23.6919C22.4659 22.2459 22.3129 21.2229 22.1389 20.6229C22.0129 20.1789 21.7549 19.7949 21.3649 19.4709C21.4189 19.3689 21.5059 19.2909 21.6259 19.2369C21.7459 19.1769 21.8569 19.1469 21.9589 19.1469Z" fill="url(#paint1_linear_77_74)"/>
</g>
<g filter="url(#filter1_d_77_74)">
<path d="M27.0689 26.5879C26.9623 26.3213 26.7836 26.0946 26.5329 25.9079C26.2823 25.7213 26.0023 25.6279 25.6929 25.6279C25.3889 25.6279 25.1383 25.7213 24.9409 25.9079C24.7436 26.0893 24.6449 26.3453 24.6449 26.6759C24.6449 26.8253 24.6556 26.9479 24.6769 27.0439C24.7036 27.1399 24.7676 27.2466 24.8689 27.3639C24.9756 27.4759 25.0769 27.5719 25.1729 27.6519C25.2743 27.7319 25.4583 27.8786 25.7249 28.0919C25.9916 28.3053 26.2636 28.5319 26.5409 28.7719C26.8236 29.0066 27.0396 29.2493 27.1889 29.4999C27.3383 29.7506 27.4129 30.0706 27.4129 30.4599C27.4129 30.9719 27.2076 31.4039 26.7969 31.7559C26.3916 32.1079 25.8743 32.2839 25.2449 32.2839C24.7543 32.2839 24.3249 32.1879 23.9569 31.9959C23.5889 31.7986 23.4049 31.5213 23.4049 31.1639C23.4049 31.0093 23.4396 30.8706 23.5089 30.7479C23.5783 30.6253 23.6796 30.4866 23.8129 30.3319C24.0476 31.2813 24.5943 31.7559 25.4529 31.7559C25.7623 31.7559 26.0343 31.6679 26.2689 31.4919C26.5036 31.3159 26.6209 31.0546 26.6209 30.7079C26.6209 30.5106 26.5969 30.3613 26.5489 30.2599C26.5009 30.1533 26.4609 30.0706 26.4289 30.0119C26.4023 29.9533 26.3516 29.8839 26.2769 29.8039C26.2023 29.7186 26.1409 29.6519 26.0929 29.6039C26.0449 29.5506 25.9623 29.4759 25.8449 29.3799C25.7276 29.2786 25.6343 29.2013 25.5649 29.1479C25.5009 29.0893 25.3889 28.9986 25.2289 28.8759C25.0689 28.7479 24.9436 28.6466 24.8529 28.5719C24.5436 28.3213 24.3063 28.0706 24.1409 27.8199C23.9809 27.5693 23.9009 27.2679 23.9009 26.9159C23.9009 26.3239 24.1009 25.8626 24.5009 25.5319C24.9009 25.2013 25.4236 25.0359 26.0689 25.0359C26.4529 25.0359 26.7756 25.1106 27.0369 25.2599C27.2983 25.4093 27.4289 25.6146 27.4289 25.8759C27.4289 26.1373 27.3089 26.3746 27.0689 26.5879Z" fill="url(#paint2_linear_77_74)"/>
</g>
<defs>
<filter id="filter0_d_77_74" x="19.3649" y="19.1469" width="7.95801" height="10.064" filterUnits="userSpaceOnUse" color-interpolation-filters="sRGB">
<feFlood flood-opacity="0" result="BackgroundImageFix"/>
<feColorMatrix in="SourceAlpha" type="matrix" values="0 0 0 0 0 0 0 0 0 0 0 0 0 0 0 0 0 0 127 0" result="hardAlpha"/>
<feOffset dx="-1" dy="1"/>
<feGaussianBlur stdDeviation="0.5"/>
<feComposite in2="hardAlpha" operator="out"/>
<feColorMatrix type="matrix" values="0 0 0 0 0 0 0 0 0 0 0 0 0 0 0 0 0 0 0.25 0"/>
<feBlend mode="normal" in2="BackgroundImageFix" result="effect1_dropShadow_77_74"/>
<feBlend mode="normal" in="SourceGraphic" in2="effect1_dropShadow_77_74" result="shape"/>
</filter>
<filter id="filter1_d_77_74" x="21.4049" y="24.0359" width="6.02399" height="9.24799" filterUnits="userSpaceOnUse" color-interpolation-filters="sRGB">
<feFlood flood-opacity="0" result="BackgroundImageFix"/>
<feColorMatrix in="SourceAlpha" type="matrix" values="0 0 0 0 0 0 0 0 0 0 0 0 0 0 0 0 0 0 127 0" result="hardAlpha"/>
<feOffset dx="-1"/>
<feGaussianBlur stdDeviation="0.5"/>
<feComposite in2="hardAlpha" operator="out"/>
<feColorMatrix type="matrix" values="0 0 0 0 0 0 0 0 0 0 0 0 0 0 0 0 0 0 0.25 0"/>
<feBlend mode="normal" in2="BackgroundImageFix" result="effect1_dropShadow_77_74"/>
<feBlend mode="normal" in="SourceGraphic" in2="effect1_dropShadow_77_74" result="shape"/>
</filter>
<linearGradient id="paint0_linear_77_74" x1="59.5468" y1="28.3761" x2="-53.5291" y2="36.7028" gradientUnits="userSpaceOnUse">
<stop stop-color="#E8AB35"/>
<stop offset="0.0001" stop-color="#E3AE22"/>
<stop offset="0.262312" stop-color="#FAEECC"/>
<stop offset="0.307635" stop-color="#F5D172"/>
<stop offset="0.449836" stop-color="#FFD46A"/>
<stop offset="0.614356" stop-color="#59440E"/>
<stop offset="0.817567" stop-color="#E2C37B"/>
<stop offset="1" stop-color="#DAA234"/>
</linearGradient>
<linearGradient id="paint1_linear_77_74" x1="24.1489" y1="17.1479" x2="24.1489" y2="30.1479" gradientUnits="userSpaceOnUse">
<stop stop-color="#48BA8A"/>
<stop offset="1"/>
</linearGradient>
<linearGradient id="paint2_linear_77_74" x1="25.6489" y1="23.1479" x2="25.6489" y2="34.1479" gradientUnits="userSpaceOnUse">
<stop offset="0.451042" stop-color="#C05A5A"/>
<stop offset="1" stop-color="#FBD46D"/>
</linearGradient>
</defs>
</svg>
