<svg width="21" height="25" viewBox="0 0 21 25" fill="none" xmlns="http://www.w3.org/2000/svg">
<rect x="0.5" y="6.8999" width="20" height="17" rx="3.5" stroke="#8C8F95"/>
<path d="M12.5002 15.7C12.5002 14.485 13.4852 13.5 14.7002 13.5H20.5002V17.9H14.7002C13.4852 17.9 12.5002 16.915 12.5002 15.7Z" stroke="#8C8F95"/>
<circle cx="14.7" cy="15.6998" r="0.9" fill="#8C8F95"/>
<mask id="path-4-inside-1_358_5891" fill="white">
<path fill-rule="evenodd" clip-rule="evenodd" d="M5.6609 12.9905L9.74069 12.9905V5.19615H13L7.7002 0L2.40039 5.19615H5.6609L5.6609 12.9905Z"/>
</mask>
<path fill-rule="evenodd" clip-rule="evenodd" d="M5.6609 12.9905L9.74069 12.9905V5.19615H13L7.7002 0L2.40039 5.19615H5.6609L5.6609 12.9905Z" fill="#202328"/>
<path d="M9.74069 12.9905V13.7405H10.4907V12.9905H9.74069ZM5.6609 12.9905H4.9109V13.7405L5.6609 13.7405V12.9905ZM9.74069 5.19615V4.44615H8.99069V5.19615L9.74069 5.19615ZM13 5.19615L13 5.94615H14.8363L13.5251 4.66061L13 5.19615ZM7.7002 0L8.22526 -0.535542L7.7002 -1.05034L7.17513 -0.535542L7.7002 0ZM2.40039 5.19615L1.87532 4.66061L0.564138 5.94615L2.40039 5.94615L2.40039 5.19615ZM5.6609 5.19615H6.4109V4.44615L5.6609 4.44615V5.19615ZM9.74069 12.2405H5.6609V13.7405H9.74069V12.2405ZM8.99069 5.19615V12.9905H10.4907V5.19615L8.99069 5.19615ZM13 4.44615H9.74069V5.94615H13L13 4.44615ZM7.17513 0.535542L12.4749 5.73169L13.5251 4.66061L8.22526 -0.535542L7.17513 0.535542ZM2.92546 5.73169L8.22526 0.535542L7.17513 -0.535542L1.87532 4.66061L2.92546 5.73169ZM5.6609 4.44615H2.40039L2.40039 5.94615H5.6609V4.44615ZM6.4109 12.9905L6.4109 5.19615H4.9109L4.9109 12.9905L6.4109 12.9905Z" fill="#8C8F95" mask="url(#path-4-inside-1_358_5891)"/>
</svg>
