<svg width="11" height="11" viewBox="0 0 11 11" fill="none" xmlns="http://www.w3.org/2000/svg">
<g clip-path="url(#clip0_471_1730)">
<path d="M7.72423 4.18676C7.58517 4.18879 7.44626 4.17782 7.30994 4.15405L7.4143 3.75612C7.68033 3.7945 7.95273 3.78437 8.21393 3.72639C8.47514 3.66841 8.71933 3.56387 8.93075 3.41952C9.61228 2.94528 9.97281 2.04449 10.0076 0.752581H8.56389V0.34375H10.4851V0.54544C10.4851 2.08809 10.0598 3.16196 9.22012 3.73977C8.79524 4.03144 8.26742 4.18915 7.72423 4.18676Z" fill="url(#paint0_linear_471_1730)"/>
<path d="M3.24602 4.1868C2.70321 4.18997 2.17543 4.03322 1.75013 3.74254C0.90889 3.16472 0.485107 2.09086 0.485107 0.54548V0.341064H2.4032V0.749895H0.959491C0.994279 2.04725 1.35639 2.94259 2.03634 3.41683C2.24785 3.56152 2.4923 3.66626 2.75382 3.72425C3.01535 3.78224 3.2881 3.79218 3.55437 3.75344L3.65873 4.15137C3.523 4.17574 3.38466 4.18762 3.24602 4.1868Z" fill="url(#paint1_linear_471_1730)"/>
<path d="M8.62391 0.0712891H2.35414C2.35414 0.0712891 2.05686 5.27298 5.48823 5.27298C8.9196 5.27298 8.62391 0.0712891 8.62391 0.0712891Z" fill="url(#paint2_linear_471_1730)"/>
<path d="M8.47848 0.17627H6.36431C6.36431 0.17627 6.7786 2.76553 5.86462 5.1422C8.74097 4.75926 8.47848 0.17627 8.47848 0.17627Z" fill="url(#paint3_linear_471_1730)"/>
<path d="M6.10336 5.27295H4.8747C4.62057 5.27295 4.41455 5.4505 4.41455 5.66952V5.67769C4.41455 5.89671 4.62057 6.07426 4.8747 6.07426H6.10336C6.35749 6.07426 6.56351 5.89671 6.56351 5.67769V5.66952C6.56351 5.4505 6.35749 5.27295 6.10336 5.27295Z" fill="url(#paint4_linear_471_1730)"/>
<path d="M6.07495 6.0307H4.97913C6.13504 5.93395 6.07495 5.31525 6.07495 5.31525C6.1296 5.31435 6.18392 5.32284 6.23471 5.34024C6.28551 5.35764 6.33177 5.3836 6.37079 5.41659C6.40981 5.44958 6.4408 5.48895 6.46196 5.53239C6.48311 5.57582 6.494 5.62246 6.49399 5.66957V5.67639C6.494 5.72349 6.48311 5.77013 6.46196 5.81357C6.4408 5.85701 6.40981 5.89638 6.37079 5.92937C6.33177 5.96236 6.28551 5.98832 6.23471 6.00572C6.18392 6.02312 6.1296 6.03161 6.07495 6.0307Z" fill="url(#paint5_linear_471_1730)"/>
<path d="M5.78709 6.073H5.18936C5.18936 6.073 5.57045 8.15667 4.8905 9.32184H6.08595C5.40758 8.15667 5.78709 6.073 5.78709 6.073Z" fill="url(#paint6_linear_471_1730)"/>
<path d="M5.72385 6.073H5.56572L5.54517 9.25915H5.99899C5.38704 8.2071 5.72385 6.073 5.72385 6.073Z" fill="url(#paint7_linear_471_1730)"/>
<path d="M6.086 9.32178H4.89055C4.89055 9.32178 5.16728 9.90095 1.78809 9.90095V10.0713H9.18214V9.90095C5.80927 9.90095 6.086 9.32178 6.086 9.32178Z" fill="url(#paint8_linear_471_1730)"/>
<path d="M6.086 9.32178H4.89055C4.89661 9.34059 4.89791 9.3603 4.89437 9.37958C4.89082 9.39886 4.88251 9.41725 4.87 9.43352H6.10814C6.09536 9.41736 6.08676 9.39901 6.08294 9.37973C6.07912 9.36045 6.08017 9.34068 6.086 9.32178Z" fill="url(#paint9_linear_471_1730)"/>
<path d="M2.49963 0.218506C2.49963 5.17081 5.50406 5.12448 5.50406 5.12448C5.50406 5.12448 3.27762 4.67067 3.27762 0.218506H2.49963Z" fill="url(#paint10_linear_471_1730)"/>
<path d="M5.33327 5.31533C4.647 5.3603 4.48887 5.77595 4.48887 5.77595C4.48887 5.77595 4.3845 5.22675 5.33327 5.31533Z" fill="url(#paint11_linear_471_1730)"/>
<path d="M2.25141 0.385986H0.553117C0.434521 3.6907 2.62143 4.05729 2.62143 4.05729C2.62143 4.05729 0.407639 3.33366 0.700176 0.463664L2.25932 0.480017L2.25141 0.385986Z" fill="url(#paint12_linear_471_1730)"/>
<path d="M10.4471 0.369629C10.561 3.6798 8.35034 4.05728 8.35034 4.05728C8.35034 4.05728 10.6195 3.30503 10.3222 0.435042L10.4471 0.369629Z" fill="url(#paint13_linear_471_1730)"/>
<path d="M10.4424 0.369629H8.66345V0.435042H10.4424V0.369629Z" fill="url(#paint14_linear_471_1730)"/>
<path d="M5.25427 6.13281C5.87255 8.22739 4.97913 9.26718 4.97913 9.26718C4.97913 9.26718 5.66224 8.04887 5.25427 6.13281Z" fill="url(#paint15_linear_471_1730)"/>
<path d="M1.84021 9.93498C4.94426 9.91727 4.93003 9.47437 4.93003 9.47437H6.05115L4.97905 9.59429C4.97905 9.59429 5.03597 9.93498 1.84021 9.93498Z" fill="url(#paint16_linear_471_1730)"/>
<path d="M9.10143 10.0278H3.8927C3.8927 10.0278 4.73236 9.98553 5.02964 9.81519L9.10143 10.0278Z" fill="url(#paint17_linear_471_1730)"/>
</g>
<defs>
<linearGradient id="paint0_linear_471_1730" x1="8.89754" y1="0.34375" x2="8.89754" y2="4.187" gradientUnits="userSpaceOnUse">
<stop stop-color="#D3AA3B"/>
<stop offset="0.711458" stop-color="#FEECBF"/>
<stop offset="1" stop-color="#674B00"/>
</linearGradient>
<linearGradient id="paint1_linear_471_1730" x1="2.07192" y1="0.341064" x2="2.07192" y2="4.18685" gradientUnits="userSpaceOnUse">
<stop stop-color="#D3AA3B"/>
<stop offset="0.711458" stop-color="#FEECBF"/>
<stop offset="1" stop-color="#674B00"/>
</linearGradient>
<linearGradient id="paint2_linear_471_1730" x1="5.48898" y1="0.0712891" x2="5.48898" y2="5.27298" gradientUnits="userSpaceOnUse">
<stop stop-color="#D3AA3B"/>
<stop offset="0.711458" stop-color="#FEECBF"/>
<stop offset="1" stop-color="#674B00"/>
</linearGradient>
<linearGradient id="paint3_linear_471_1730" x1="7.17468" y1="0.17627" x2="7.17468" y2="5.1422" gradientUnits="userSpaceOnUse">
<stop stop-color="#D3AA3B"/>
<stop offset="0.711458" stop-color="#FEECBF"/>
<stop offset="1" stop-color="#674B00"/>
</linearGradient>
<linearGradient id="paint4_linear_471_1730" x1="5.48903" y1="5.27295" x2="5.48903" y2="6.07426" gradientUnits="userSpaceOnUse">
<stop stop-color="#D3AA3B"/>
<stop offset="0.711458" stop-color="#FEECBF"/>
<stop offset="1" stop-color="#674B00"/>
</linearGradient>
<linearGradient id="paint5_linear_471_1730" x1="5.73656" y1="5.31519" x2="5.73656" y2="6.03077" gradientUnits="userSpaceOnUse">
<stop stop-color="#D3AA3B"/>
<stop offset="0.711458" stop-color="#FEECBF"/>
<stop offset="1" stop-color="#674B00"/>
</linearGradient>
<linearGradient id="paint6_linear_471_1730" x1="5.48823" y1="6.073" x2="5.48823" y2="9.32184" gradientUnits="userSpaceOnUse">
<stop stop-color="#D3AA3B"/>
<stop offset="0.711458" stop-color="#FEECBF"/>
<stop offset="1" stop-color="#674B00"/>
</linearGradient>
<linearGradient id="paint7_linear_471_1730" x1="5.77208" y1="6.073" x2="5.77208" y2="9.25915" gradientUnits="userSpaceOnUse">
<stop stop-color="#D3AA3B"/>
<stop offset="0.711458" stop-color="#FEECBF"/>
<stop offset="1" stop-color="#674B00"/>
</linearGradient>
<linearGradient id="paint8_linear_471_1730" x1="5.48511" y1="9.32178" x2="5.48511" y2="10.0713" gradientUnits="userSpaceOnUse">
<stop stop-color="#D3AA3B"/>
<stop offset="0.711458" stop-color="#FEECBF"/>
<stop offset="1" stop-color="#674B00"/>
</linearGradient>
<linearGradient id="paint9_linear_471_1730" x1="5.48907" y1="9.32178" x2="5.48907" y2="9.43352" gradientUnits="userSpaceOnUse">
<stop stop-color="#D3AA3B"/>
<stop offset="0.711458" stop-color="#FEECBF"/>
<stop offset="1" stop-color="#674B00"/>
</linearGradient>
<linearGradient id="paint10_linear_471_1730" x1="4.00185" y1="0.218506" x2="4.00185" y2="5.12449" gradientUnits="userSpaceOnUse">
<stop stop-color="#D3AA3B"/>
<stop offset="0.711458" stop-color="#FEECBF"/>
<stop offset="1" stop-color="#674B00"/>
</linearGradient>
<linearGradient id="paint11_linear_471_1730" x1="4.90937" y1="5.30566" x2="4.90937" y2="5.77595" gradientUnits="userSpaceOnUse">
<stop stop-color="#D3AA3B"/>
<stop offset="0.711458" stop-color="#FEECBF"/>
<stop offset="1" stop-color="#674B00"/>
</linearGradient>
<linearGradient id="paint12_linear_471_1730" x1="1.58494" y1="0.385986" x2="1.58494" y2="4.05729" gradientUnits="userSpaceOnUse">
<stop stop-color="#D3AA3B"/>
<stop offset="0.711458" stop-color="#FEECBF"/>
<stop offset="1" stop-color="#674B00"/>
</linearGradient>
<linearGradient id="paint13_linear_471_1730" x1="9.40085" y1="0.369629" x2="9.40085" y2="4.05728" gradientUnits="userSpaceOnUse">
<stop stop-color="#D3AA3B"/>
<stop offset="0.711458" stop-color="#FEECBF"/>
<stop offset="1" stop-color="#674B00"/>
</linearGradient>
<linearGradient id="paint14_linear_471_1730" x1="9.55292" y1="0.369629" x2="9.55292" y2="0.435042" gradientUnits="userSpaceOnUse">
<stop stop-color="#D3AA3B"/>
<stop offset="0.711458" stop-color="#FEECBF"/>
<stop offset="1" stop-color="#674B00"/>
</linearGradient>
<linearGradient id="paint15_linear_471_1730" x1="5.22569" y1="6.13281" x2="5.22569" y2="9.26718" gradientUnits="userSpaceOnUse">
<stop stop-color="#D3AA3B"/>
<stop offset="0.711458" stop-color="#FEECBF"/>
<stop offset="1" stop-color="#674B00"/>
</linearGradient>
<linearGradient id="paint16_linear_471_1730" x1="3.94568" y1="9.47437" x2="3.94568" y2="9.93498" gradientUnits="userSpaceOnUse">
<stop stop-color="#D3AA3B"/>
<stop offset="0.711458" stop-color="#FEECBF"/>
<stop offset="1" stop-color="#674B00"/>
</linearGradient>
<linearGradient id="paint17_linear_471_1730" x1="6.49706" y1="9.81519" x2="6.49706" y2="10.0278" gradientUnits="userSpaceOnUse">
<stop stop-color="#D3AA3B"/>
<stop offset="0.711458" stop-color="#FEECBF"/>
<stop offset="1" stop-color="#674B00"/>
</linearGradient>
<clipPath id="clip0_471_1730">
<rect width="10" height="10" fill="white" transform="translate(0.485107 0.0712891)"/>
</clipPath>
</defs>
</svg>
