<svg width="23" height="16" viewBox="0 0 23 16" fill="none" xmlns="http://www.w3.org/2000/svg">
<path d="M19.6005 2.14997C19.2816 1.67276 18.8301 1.30773 18.2946 1.09553C17.1322 0.633748 16.1325 0.325268 15.238 0.151397C14.6105 0.0298747 13.9892 0.33555 13.6905 0.91138L13.616 1.05534C12.9536 0.982891 12.2502 0.958587 11.4491 0.978685C10.6277 0.959054 9.92195 0.982891 9.25862 1.05534L9.18455 0.91138C8.88591 0.33555 8.26364 0.0303421 7.63758 0.151865C6.74309 0.325268 5.74291 0.633748 4.58092 1.096C4.04592 1.3082 3.59442 1.67276 3.27503 2.15044C1.04775 5.48343 0.17496 9.07862 0.607111 13.1421C0.622208 13.2847 0.70241 13.4123 0.824602 13.4885C2.53811 14.5588 4.02091 15.2917 5.49098 15.7955C6.10571 16.0082 6.78743 15.7703 7.15023 15.2211L7.79704 14.2391C7.28186 14.0466 6.77894 13.8185 6.29678 13.546C6.0708 13.4184 5.99201 13.1328 6.12081 12.9089C6.2496 12.6841 6.53786 12.6051 6.76432 12.7346C8.199 13.545 9.82098 13.9736 11.4548 13.9736C13.0885 13.9736 14.7105 13.545 16.1452 12.7346C16.3712 12.6051 16.6594 12.6841 16.7887 12.9089C16.9175 13.1328 16.8387 13.4184 16.6127 13.546C16.1145 13.8278 15.5937 14.0624 15.0601 14.2583L15.7258 15.2407C15.9999 15.645 16.4523 15.875 16.9184 15.875C17.0704 15.875 17.2237 15.8502 17.3728 15.7997C18.8471 15.2954 20.3327 14.5616 22.05 13.489C22.1722 13.4128 22.2524 13.2847 22.2675 13.1426C22.7006 9.07862 21.8278 5.48296 19.6005 2.14997ZM8.42404 10.2513C7.51539 10.2513 6.76762 9.30297 6.76762 8.15038C6.76762 6.99779 7.51539 6.04944 8.42404 6.04944C9.33269 6.04944 10.0805 6.99779 10.0805 8.15038C10.0805 9.30297 9.33269 10.2513 8.42404 10.2513ZM14.5539 10.2392C13.6537 10.2392 12.913 9.28521 12.913 8.12561C12.913 6.966 13.6537 6.01205 14.5539 6.01205C15.454 6.01205 16.1947 6.966 16.1947 8.12561C16.1947 9.28521 15.454 10.2392 14.5539 10.2392Z" fill="url(#paint0_linear_358_7078)"/>
<defs>
<linearGradient id="paint0_linear_358_7078" x1="5.78017" y1="-6.25" x2="11.3769" y2="15.8903" gradientUnits="userSpaceOnUse">
<stop stop-color="#C59845"/>
<stop offset="0.4875" stop-color="#F5DA82"/>
<stop offset="1" stop-color="#C59845"/>
</linearGradient>
</defs>
</svg>
