<svg width="11" height="13" viewBox="0 0 11 13" fill="none" xmlns="http://www.w3.org/2000/svg">
<mask id="path-1-inside-1_358_5981" fill="white">
<path fill-rule="evenodd" clip-rule="evenodd" d="M7.3391 0H3.25931V7.79433H0L5.2998 12.9905L10.5996 7.79433H7.3391V0Z"/>
</mask>
<path fill-rule="evenodd" clip-rule="evenodd" d="M7.3391 0H3.25931V7.79433H0L5.2998 12.9905L10.5996 7.79433H7.3391V0Z" fill="#16171A"/>
<path d="M3.25931 0V-0.75H2.50931V0H3.25931ZM7.3391 0H8.0891V-0.75H7.3391V0ZM3.25931 7.79433V8.54433H4.00931V7.79433H3.25931ZM0 7.79433V7.04433H-1.83625L-0.525067 8.32987L0 7.79433ZM5.2998 12.9905L4.77474 13.526L5.2998 14.0408L5.82487 13.526L5.2998 12.9905ZM10.5996 7.79433L11.1247 8.32987L12.4359 7.04433H10.5996V7.79433ZM7.3391 7.79433H6.5891V8.54433H7.3391V7.79433ZM3.25931 0.75H7.3391V-0.75H3.25931V0.75ZM4.00931 7.79433V0H2.50931V7.79433H4.00931ZM0 8.54433H3.25931V7.04433H0V8.54433ZM5.82487 12.4549L0.525067 7.25878L-0.525067 8.32987L4.77474 13.526L5.82487 12.4549ZM10.0745 7.25878L4.77474 12.4549L5.82487 13.526L11.1247 8.32987L10.0745 7.25878ZM7.3391 8.54433H10.5996V7.04433H7.3391V8.54433ZM6.5891 0V7.79433H8.0891V0H6.5891Z" fill="url(#paint0_linear_358_5981)" mask="url(#path-1-inside-1_358_5981)"/>
<defs>
<linearGradient id="paint0_linear_358_5981" x1="5.2998" y1="0" x2="5.2998" y2="12.9905" gradientUnits="userSpaceOnUse">
<stop stop-color="#CAA946"/>
<stop offset="0.336458" stop-color="#F3F3F2"/>
<stop offset="0.940625" stop-color="#FFD861"/>
<stop offset="1" stop-color="#FFD861"/>
</linearGradient>
</defs>
</svg>
