<svg width="21" height="24" viewBox="0 0 21 24" fill="none" xmlns="http://www.w3.org/2000/svg">
<rect x="0.5" y="5.8999" width="20" height="17" rx="3.5" stroke="url(#paint0_linear_358_5866)"/>
<path d="M12.5002 14.7C12.5002 13.485 13.4852 12.5 14.7002 12.5H20.5002V16.9H14.7002C13.4852 16.9 12.5002 15.915 12.5002 14.7Z" stroke="url(#paint1_linear_358_5866)"/>
<circle cx="14.7" cy="14.6998" r="0.9" fill="url(#paint2_linear_358_5866)"/>
<mask id="path-4-inside-1_358_5866" fill="white">
<path fill-rule="evenodd" clip-rule="evenodd" d="M9.73949 0H5.6597V7.79433H2.40039L7.7002 12.9905L13 7.79433H9.73949V0Z"/>
</mask>
<path fill-rule="evenodd" clip-rule="evenodd" d="M9.73949 0H5.6597V7.79433H2.40039L7.7002 12.9905L13 7.79433H9.73949V0Z" fill="#23272D"/>
<path d="M5.6597 0V-0.75H4.9097V0H5.6597ZM9.73949 0H10.4895V-0.75H9.73949V0ZM5.6597 7.79433V8.54433H6.4097V7.79433H5.6597ZM2.40039 7.79433V7.04433H0.564138L1.87532 8.32987L2.40039 7.79433ZM7.7002 12.9905L7.17513 13.526L7.7002 14.0408L8.22526 13.526L7.7002 12.9905ZM13 7.79433L13.5251 8.32987L14.8363 7.04433H13V7.79433ZM9.73949 7.79433H8.98949V8.54433H9.73949V7.79433ZM5.6597 0.75H9.73949V-0.75H5.6597V0.75ZM6.4097 7.79433V0H4.9097V7.79433H6.4097ZM2.40039 8.54433H5.6597V7.04433H2.40039V8.54433ZM8.22526 12.4549L2.92546 7.25878L1.87532 8.32987L7.17513 13.526L8.22526 12.4549ZM12.4749 7.25878L7.17513 12.4549L8.22526 13.526L13.5251 8.32987L12.4749 7.25878ZM9.73949 8.54433H13V7.04433H9.73949V8.54433ZM8.98949 0V7.79433H10.4895V0H8.98949Z" fill="url(#paint3_linear_358_5866)" mask="url(#path-4-inside-1_358_5866)"/>
<defs>
<linearGradient id="paint0_linear_358_5866" x1="10.5" y1="5.3999" x2="10.5" y2="23.3999" gradientUnits="userSpaceOnUse">
<stop stop-color="#CAA946"/>
<stop offset="0.336458" stop-color="#F3F3F2"/>
<stop offset="0.940625" stop-color="#FFD861"/>
<stop offset="1" stop-color="#FFD861"/>
</linearGradient>
<linearGradient id="paint1_linear_358_5866" x1="16.5002" y1="12" x2="16.5002" y2="17.4" gradientUnits="userSpaceOnUse">
<stop stop-color="#CAA946"/>
<stop offset="0.336458" stop-color="#F3F3F2"/>
<stop offset="0.940625" stop-color="#FFD861"/>
<stop offset="1" stop-color="#FFD861"/>
</linearGradient>
<linearGradient id="paint2_linear_358_5866" x1="14.7" y1="13.7998" x2="14.7" y2="15.5998" gradientUnits="userSpaceOnUse">
<stop stop-color="#CAA946"/>
<stop offset="0.544792" stop-color="#F3F3F2"/>
<stop offset="1" stop-color="#FFD861"/>
</linearGradient>
<linearGradient id="paint3_linear_358_5866" x1="7.7002" y1="0" x2="7.7002" y2="12.9905" gradientUnits="userSpaceOnUse">
<stop stop-color="#CAA946"/>
<stop offset="0.336458" stop-color="#F3F3F2"/>
<stop offset="0.940625" stop-color="#FFD861"/>
<stop offset="1" stop-color="#FFD861"/>
</linearGradient>
</defs>
</svg>
