<svg width="81" height="290" viewBox="0 0 81 290" fill="none" xmlns="http://www.w3.org/2000/svg">
<g filter="url(#filter0_d_947_25738)">
<path d="M40.7901 2.04829L75.1453 26.5205C75.2966 26.6283 75.3757 26.8111 75.3506 26.9952L57.2637 159.798L40.9954 279.247C40.968 279.449 40.8933 279.531 40.8391 279.574C40.7669 279.632 40.6484 279.68 40.5 279.68C40.3516 279.68 40.2331 279.632 40.1609 279.574C40.1067 279.531 40.032 279.449 40.0046 279.247L5.64939 26.9952C5.62431 26.8111 5.70339 26.6283 5.85472 26.5205L40.2099 2.04829C40.3835 1.92462 40.6165 1.92462 40.7901 2.04829Z" stroke="url(#paint0_linear_947_25738)" stroke-width="3" shape-rendering="crispEdges"/>
</g>
<defs>
<filter id="filter0_d_947_25738" x="0.144531" y="0.455566" width="80.7109" height="288.724" filterUnits="userSpaceOnUse" color-interpolation-filters="sRGB">
<feFlood flood-opacity="0" result="BackgroundImageFix"/>
<feColorMatrix in="SourceAlpha" type="matrix" values="0 0 0 0 0 0 0 0 0 0 0 0 0 0 0 0 0 0 127 0" result="hardAlpha"/>
<feOffset dy="4"/>
<feGaussianBlur stdDeviation="2"/>
<feComposite in2="hardAlpha" operator="out"/>
<feColorMatrix type="matrix" values="0 0 0 0 0 0 0 0 0 0 0 0 0 0 0 0 0 0 0.25 0"/>
<feBlend mode="normal" in2="BackgroundImageFix" result="effect1_dropShadow_947_25738"/>
<feBlend mode="normal" in="SourceGraphic" in2="effect1_dropShadow_947_25738" result="shape"/>
</filter>
<linearGradient id="paint0_linear_947_25738" x1="4" y1="12.9464" x2="78.881" y2="13.4485" gradientUnits="userSpaceOnUse">
<stop offset="0.0308102" stop-color="#B0772A"/>
<stop offset="0.09" stop-color="#DEB864"/>
<stop offset="0.14" stop-color="#F4D780"/>
<stop offset="0.26" stop-color="#FFF1C9"/>
<stop offset="0.61" stop-color="#F4D780"/>
<stop offset="0.765625" stop-color="#C5AD67"/>
<stop offset="0.847211" stop-color="#F4D780"/>
<stop offset="1" stop-color="#93621F"/>
</linearGradient>
</defs>
</svg>
