<svg width="11" height="15" viewBox="0 0 11 15" fill="none" xmlns="http://www.w3.org/2000/svg">
<g filter="url(#filter0_f_471_1711)">
<ellipse cx="5.5" cy="7.07129" rx="2.5" ry="4" fill="#0C1B16"/>
</g>
<g clip-path="url(#clip0_471_1711)">
<path d="M7.07875 0.192383H0.769184C0.450558 0.192383 0.192261 0.45068 0.192261 0.769306V8.59785C0.192261 8.91647 0.450558 9.17477 0.769184 9.17477H7.07875C7.39737 9.17477 7.65567 8.91647 7.65567 8.59785V0.769306C7.65567 0.45068 7.39737 0.192383 7.07875 0.192383Z" stroke="url(#paint0_linear_471_1711)" stroke-width="0.5"/>
<path d="M2.07343 1.26587H1.45805C1.35185 1.26587 1.26575 1.35197 1.26575 1.45818V2.07355C1.26575 2.17976 1.35185 2.26586 1.45805 2.26586H2.07343C2.17964 2.26586 2.26574 2.17976 2.26574 2.07355V1.45818C2.26574 1.35197 2.17964 1.26587 2.07343 1.26587Z" fill="url(#paint1_linear_471_1711)"/>
<path d="M2.07343 4.05078H1.45805C1.35185 4.05078 1.26575 4.13688 1.26575 4.24309V4.85847C1.26575 4.96467 1.35185 5.05077 1.45805 5.05077H2.07343C2.17964 5.05077 2.26574 4.96467 2.26574 4.85847V4.24309C2.26574 4.13688 2.17964 4.05078 2.07343 4.05078Z" fill="url(#paint2_linear_471_1711)"/>
<path d="M2.07343 6.83521H1.45805C1.35185 6.83521 1.26575 6.9213 1.26575 7.02751V7.64289C1.26575 7.7491 1.35185 7.8352 1.45805 7.8352H2.07343C2.17964 7.8352 2.26574 7.7491 2.26574 7.64289V7.02751C2.26574 6.9213 2.17964 6.83521 2.07343 6.83521Z" fill="url(#paint3_linear_471_1711)"/>
<path d="M4.35187 1.26587H3.7365C3.63029 1.26587 3.54419 1.35197 3.54419 1.45818V2.07355C3.54419 2.17976 3.63029 2.26586 3.7365 2.26586H4.35187C4.45808 2.26586 4.54418 2.17976 4.54418 2.07355V1.45818C4.54418 1.35197 4.45808 1.26587 4.35187 1.26587Z" fill="url(#paint4_linear_471_1711)"/>
<path d="M4.35187 4.05078H3.7365C3.63029 4.05078 3.54419 4.13688 3.54419 4.24309V4.85847C3.54419 4.96467 3.63029 5.05077 3.7365 5.05077H4.35187C4.45808 5.05077 4.54418 4.96467 4.54418 4.85847V4.24309C4.54418 4.13688 4.45808 4.05078 4.35187 4.05078Z" fill="url(#paint5_linear_471_1711)"/>
<path d="M4.35187 6.83521H3.7365C3.63029 6.83521 3.54419 6.9213 3.54419 7.02751V7.64289C3.54419 7.7491 3.63029 7.8352 3.7365 7.8352H4.35187C4.45808 7.8352 4.54418 7.7491 4.54418 7.64289V7.02751C4.54418 6.9213 4.45808 6.83521 4.35187 6.83521Z" fill="url(#paint6_linear_471_1711)"/>
<path d="M6.63019 1.26587H6.01482C5.90861 1.26587 5.82251 1.35197 5.82251 1.45818V2.07355C5.82251 2.17976 5.90861 2.26586 6.01482 2.26586H6.63019C6.7364 2.26586 6.8225 2.17976 6.8225 2.07355V1.45818C6.8225 1.35197 6.7364 1.26587 6.63019 1.26587Z" fill="url(#paint7_linear_471_1711)"/>
<path d="M6.63019 4.05078H6.01482C5.90861 4.05078 5.82251 4.13688 5.82251 4.24309V4.85847C5.82251 4.96467 5.90861 5.05077 6.01482 5.05077H6.63019C6.7364 5.05077 6.8225 4.96467 6.8225 4.85847V4.24309C6.8225 4.13688 6.7364 4.05078 6.63019 4.05078Z" fill="url(#paint8_linear_471_1711)"/>
<path d="M6.63019 6.83521H6.01482C5.90861 6.83521 5.82251 6.9213 5.82251 7.02751V7.64289C5.82251 7.7491 5.90861 7.8352 6.01482 7.8352H6.63019C6.7364 7.8352 6.8225 7.7491 6.8225 7.64289V7.02751C6.8225 6.9213 6.7364 6.83521 6.63019 6.83521Z" fill="url(#paint9_linear_471_1711)"/>
<path d="M7.97445 7.84825C7.97445 9.31633 7.84791 8.86094 7.0884 10.0002C5.66604 9.99987 4.99939 9.33325 4.80994 7.97487C4.80994 6.50677 5.94338 5.31665 7.34156 5.31665C9.33268 5.66658 7.97445 6.38019 7.97445 7.84825Z" fill="url(#paint10_linear_471_1711)"/>
<path d="M6.42603 9.35152C6.25319 9.43952 6.08155 9.45536 5.91112 9.39898C5.74069 9.34259 5.61388 9.23952 5.5307 9.08982C5.52016 9.06913 5.50969 9.04521 5.49926 9.0179C5.48883 8.99067 5.48109 8.96529 5.47605 8.94182L5.15799 7.46306C5.1266 7.3065 5.14819 7.15388 5.22276 7.00519C5.29732 6.8565 5.40868 6.74442 5.55684 6.66893L7.1618 5.85116C7.30995 5.77568 7.46608 5.75147 7.6302 5.77854C7.79434 5.80561 7.93049 5.87785 8.03872 5.99526L9.04811 7.12179C9.06542 7.14226 9.08242 7.16372 9.09903 7.18618C9.11572 7.20863 9.12995 7.23149 9.1418 7.25475C9.2208 7.40983 9.23034 7.57265 9.17034 7.74321C9.11042 7.91375 8.99395 8.04306 8.82111 8.13113C8.70588 8.18982 8.58442 8.2159 8.45665 8.20936C8.32895 8.20282 8.21534 8.16306 8.11595 8.08998L7.88611 7.92382C7.85795 7.90244 7.8278 7.89252 7.7958 7.89413C7.76388 7.89582 7.73142 7.90498 7.69849 7.92182L6.91656 8.32021C6.88364 8.33698 6.85711 8.35782 6.83698 8.38275C6.81684 8.40759 6.80715 8.43782 6.80792 8.47321L6.80727 8.75682C6.80793 8.88021 6.77336 8.99544 6.70357 9.10267C6.63377 9.20982 6.54126 9.29275 6.42603 9.35152ZM6.32005 9.11244C6.38113 9.08136 6.43182 9.03652 6.47213 8.97798C6.51244 8.91944 6.53433 8.84913 6.53779 8.76713L6.54042 8.48744C6.54185 8.40206 6.56531 8.32421 6.61081 8.25375C6.65631 8.18336 6.71872 8.12798 6.79804 8.08759L7.57994 7.68917C7.657 7.64991 7.73826 7.63292 7.82372 7.6382C7.90926 7.64348 7.98765 7.66865 8.05895 7.71367L8.2868 7.87598C8.35542 7.92129 8.42542 7.94475 8.49672 7.94636C8.56811 7.94798 8.63395 7.93352 8.69411 7.90282C8.78619 7.8559 8.85395 7.78306 8.89726 7.68436C8.94065 7.58564 8.93911 7.48636 8.89272 7.38654C8.88611 7.37362 8.87788 7.3591 8.86795 7.343C8.85803 7.3269 8.84634 7.31249 8.83295 7.29979L7.82549 6.17713C7.7588 6.10044 7.67539 6.0534 7.57531 6.03603C7.47522 6.01866 7.37689 6.03458 7.28032 6.08378L5.67536 6.90155C5.58015 6.95006 5.50982 7.02009 5.46436 7.11161C5.41891 7.20314 5.4076 7.29843 5.43042 7.39749L5.74651 8.87244C5.74903 8.88413 5.76006 8.91598 5.77959 8.9679C5.82936 9.06552 5.90852 9.12598 6.01708 9.14913C6.12565 9.17229 6.22664 9.16006 6.32005 9.11244ZM7.13959 7.18102C7.10667 7.19779 7.07194 7.20084 7.03539 7.19016C6.99885 7.17948 6.97235 7.15799 6.95589 7.12568C6.93942 7.09337 6.93795 7.05994 6.95144 7.02539C6.96494 6.99084 6.98883 6.96482 7.02313 6.94735C7.05742 6.92988 7.09191 6.92635 7.12658 6.93676C7.16127 6.94717 7.187 6.96885 7.20379 7.0018C7.21959 7.03282 7.22159 7.06599 7.20978 7.1013C7.19797 7.13662 7.17458 7.16319 7.13959 7.18102ZM7.31078 6.70311C7.27786 6.71989 7.24313 6.72293 7.20658 6.71226C7.17004 6.70157 7.14354 6.68008 7.12708 6.64777C7.11062 6.61546 7.10913 6.58203 7.12263 6.54749C7.13613 6.51293 7.16002 6.48692 7.19432 6.46945C7.22862 6.45197 7.2631 6.44844 7.29778 6.45885C7.33245 6.46926 7.35819 6.49095 7.37498 6.5239C7.39078 6.55492 7.39278 6.58808 7.38097 6.6234C7.36916 6.65872 7.34576 6.68529 7.31078 6.70311ZM7.62685 7.32342C7.59393 7.3402 7.55919 7.34325 7.52265 7.33257C7.48611 7.32189 7.45961 7.30039 7.44315 7.26809C7.42668 7.23578 7.4252 7.20235 7.4387 7.1678C7.45219 7.13325 7.47609 7.10723 7.51039 7.08976C7.54468 7.07229 7.57916 7.06876 7.61385 7.07916C7.64852 7.08958 7.67425 7.11126 7.69105 7.14422C7.70688 7.17523 7.70888 7.20839 7.69703 7.24372C7.68522 7.27903 7.66183 7.3056 7.62685 7.32342ZM7.79803 6.84552C7.76511 6.8623 7.73042 6.86535 7.69388 6.85466C7.6573 6.84399 7.63079 6.82249 7.61433 6.79018C7.59787 6.75787 7.59639 6.72444 7.60988 6.68989C7.62338 6.65534 7.64728 6.62933 7.68158 6.61186C7.71588 6.59439 7.75034 6.59085 7.78503 6.60126C7.81972 6.61167 7.84542 6.63336 7.86226 6.66631C7.87803 6.69732 7.88003 6.73049 7.86826 6.76581C7.85642 6.80113 7.83303 6.8277 7.79803 6.84552ZM6.44494 7.85236C6.41751 7.86636 6.38856 7.8689 6.35811 7.85998C6.32765 7.85113 6.30584 7.83375 6.29267 7.8079L6.20378 7.63342L6.01859 7.72775C5.99115 7.74175 5.96222 7.74429 5.93176 7.73536C5.90131 7.72652 5.87949 7.70913 5.86632 7.68328C5.85315 7.65743 5.85192 7.62957 5.86262 7.5997C5.87332 7.56983 5.89239 7.54791 5.91982 7.53393L6.10501 7.43957L6.01612 7.26511C6.00295 7.23926 6.00171 7.21141 6.01241 7.18154C6.02311 7.15167 6.04218 7.12975 6.06962 7.11576C6.09705 7.10179 6.12599 7.09925 6.15645 7.10815C6.1869 7.11705 6.20871 7.13442 6.22188 7.16027L6.31077 7.33473L6.49596 7.24037C6.52339 7.22639 6.55234 7.22386 6.58279 7.23276C6.61325 7.24166 6.63506 7.25903 6.64823 7.28488C6.6614 7.31072 6.66263 7.33858 6.65193 7.36845C6.64123 7.39832 6.62217 7.42024 6.59473 7.43422L6.40955 7.52858L6.49844 7.70306C6.51161 7.7289 6.51284 7.75675 6.50214 7.78659C6.49145 7.81652 6.47238 7.83844 6.44494 7.85236Z" fill="url(#paint11_linear_471_1711)"/>
</g>
<defs>
<filter id="filter0_f_471_1711" x="0" y="0.0712891" width="11" height="14" filterUnits="userSpaceOnUse" color-interpolation-filters="sRGB">
<feFlood flood-opacity="0" result="BackgroundImageFix"/>
<feBlend mode="normal" in="SourceGraphic" in2="BackgroundImageFix" result="shape"/>
<feGaussianBlur stdDeviation="1.5" result="effect1_foregroundBlur_471_1711"/>
</filter>
<linearGradient id="paint0_linear_471_1711" x1="3.92396" y1="0.192383" x2="3.92396" y2="9.17477" gradientUnits="userSpaceOnUse">
<stop stop-color="#DEB864"/>
<stop offset="0.503125" stop-color="white"/>
<stop offset="1" stop-color="#DEB864"/>
</linearGradient>
<linearGradient id="paint1_linear_471_1711" x1="1.76574" y1="1.26587" x2="1.76574" y2="2.26586" gradientUnits="userSpaceOnUse">
<stop stop-color="#DEB864"/>
<stop offset="0.503125" stop-color="white"/>
<stop offset="1" stop-color="#DEB864"/>
</linearGradient>
<linearGradient id="paint2_linear_471_1711" x1="1.76574" y1="4.05078" x2="1.76574" y2="5.05077" gradientUnits="userSpaceOnUse">
<stop stop-color="#DEB864"/>
<stop offset="0.503125" stop-color="white"/>
<stop offset="1" stop-color="#DEB864"/>
</linearGradient>
<linearGradient id="paint3_linear_471_1711" x1="1.76574" y1="6.83521" x2="1.76574" y2="7.8352" gradientUnits="userSpaceOnUse">
<stop stop-color="#DEB864"/>
<stop offset="0.503125" stop-color="white"/>
<stop offset="1" stop-color="#DEB864"/>
</linearGradient>
<linearGradient id="paint4_linear_471_1711" x1="4.04419" y1="1.26587" x2="4.04419" y2="2.26586" gradientUnits="userSpaceOnUse">
<stop stop-color="#DEB864"/>
<stop offset="0.503125" stop-color="white"/>
<stop offset="1" stop-color="#DEB864"/>
</linearGradient>
<linearGradient id="paint5_linear_471_1711" x1="4.04419" y1="4.05078" x2="4.04419" y2="5.05077" gradientUnits="userSpaceOnUse">
<stop stop-color="#DEB864"/>
<stop offset="0.503125" stop-color="white"/>
<stop offset="1" stop-color="#DEB864"/>
</linearGradient>
<linearGradient id="paint6_linear_471_1711" x1="4.04419" y1="6.83521" x2="4.04419" y2="7.8352" gradientUnits="userSpaceOnUse">
<stop stop-color="#DEB864"/>
<stop offset="0.503125" stop-color="white"/>
<stop offset="1" stop-color="#DEB864"/>
</linearGradient>
<linearGradient id="paint7_linear_471_1711" x1="6.32251" y1="1.26587" x2="6.32251" y2="2.26586" gradientUnits="userSpaceOnUse">
<stop stop-color="#DEB864"/>
<stop offset="0.503125" stop-color="white"/>
<stop offset="1" stop-color="#DEB864"/>
</linearGradient>
<linearGradient id="paint8_linear_471_1711" x1="6.32251" y1="4.05078" x2="6.32251" y2="5.05077" gradientUnits="userSpaceOnUse">
<stop stop-color="#DEB864"/>
<stop offset="0.503125" stop-color="white"/>
<stop offset="1" stop-color="#DEB864"/>
</linearGradient>
<linearGradient id="paint9_linear_471_1711" x1="6.32251" y1="6.83521" x2="6.32251" y2="7.8352" gradientUnits="userSpaceOnUse">
<stop stop-color="#DEB864"/>
<stop offset="0.503125" stop-color="white"/>
<stop offset="1" stop-color="#DEB864"/>
</linearGradient>
<linearGradient id="paint10_linear_471_1711" x1="7.00037" y1="8.00024" x2="7.00037" y2="8.50024" gradientUnits="userSpaceOnUse">
<stop stop-color="#10221C"/>
<stop offset="1" stop-color="#10221B"/>
</linearGradient>
<linearGradient id="paint11_linear_471_1711" x1="7.17661" y1="5.76782" x2="7.17661" y2="9.43199" gradientUnits="userSpaceOnUse">
<stop stop-color="#DEB864"/>
<stop offset="0.503125" stop-color="white"/>
<stop offset="1" stop-color="#DEB864"/>
</linearGradient>
<clipPath id="clip0_471_1711">
<rect width="10" height="10" fill="white"/>
</clipPath>
</defs>
</svg>
