<svg width="14" height="14" viewBox="0 0 14 14" fill="none" xmlns="http://www.w3.org/2000/svg">
<g clip-path="url(#clip0_552_7804)">
<path fill-rule="evenodd" clip-rule="evenodd" d="M9.85376 11.1468V9.32771C9.85376 8.65931 9.60635 8.08397 9.11157 7.60177C8.62649 7.12902 8.03375 6.88799 7.33339 6.87873L7.81271 10.3939C7.87136 10.8239 8.27018 11.1466 8.74296 11.1466H9.47786C9.48073 11.1466 9.48359 11.1467 9.48644 11.1468H9.85376ZM5.09428 11.1468H4.72876V9.32771C4.72876 8.65931 4.97617 8.08397 5.47095 7.60177C5.93298 7.15148 6.49268 6.91142 7.15001 6.88162L6.75289 10.3763C6.70314 10.8141 6.30061 11.1466 5.82046 11.1466H5.10286C5.09999 11.1466 5.09713 11.1467 5.09428 11.1468ZM7.29118 3.12573C6.27414 3.12573 5.37057 3.43588 4.79991 3.81332C4.75248 3.62217 4.72876 3.42163 4.72876 3.21172V1.407H9.85376V3.21172C9.85376 3.42167 9.83003 3.62223 9.78258 3.8134C9.21194 3.43592 8.3083 3.12573 7.29118 3.12573ZM2.29126 12.0061V11.1468H3.79126V9.32771C3.79126 8.65931 3.98135 8.04579 4.36157 7.48718C4.74179 6.92858 5.27042 6.52515 5.94751 6.27688C5.27042 6.0286 4.74179 5.62279 4.36157 5.05941C3.98135 4.49602 3.79126 3.88012 3.79126 3.21172V1.407H2.29126V0.547607H12.2913V1.407H10.7913V3.21172C10.7913 3.88012 10.6012 4.49602 10.2209 5.05941C9.84073 5.62279 9.3121 6.0286 8.63501 6.27688C9.3121 6.52515 9.84073 6.92858 10.2209 7.48718C10.6012 8.04579 10.7913 8.65931 10.7913 9.32771V11.1468H12.2913V12.0061H2.29126Z" fill="url(#paint0_linear_552_7804)"/>
</g>
<defs>
<linearGradient id="paint0_linear_552_7804" x1="11.0413" y1="5.13102" x2="7.77862" y2="11.9528" gradientUnits="userSpaceOnUse">
<stop stop-color="#DEB864"/>
<stop offset="0.513542" stop-color="white"/>
<stop offset="1" stop-color="#DEB864"/>
</linearGradient>
<clipPath id="clip0_552_7804">
<rect width="13.75" height="12.5" fill="white" transform="translate(0 0.547607)"/>
</clipPath>
</defs>
</svg>
