<svg width="32" height="32" viewBox="0 0 32 32" fill="none" xmlns="http://www.w3.org/2000/svg">
<path d="M19.4496 8.4667L11.9246 10.9667C6.86628 12.6584 6.86628 15.4167 11.9246 17.1L14.1579 17.8417L14.8996 20.075C16.5829 25.1334 19.3496 25.1334 21.0329 20.075L23.5413 12.5584C24.6579 9.18337 22.8246 7.3417 19.4496 8.4667ZM19.7163 12.95L16.5496 16.1334C16.4246 16.2584 16.2663 16.3167 16.1079 16.3167C15.9496 16.3167 15.7913 16.2584 15.6663 16.1334C15.4246 15.8917 15.4246 15.4917 15.6663 15.25L18.8329 12.0667C19.0746 11.825 19.4746 11.825 19.7163 12.0667C19.9579 12.3084 19.9579 12.7084 19.7163 12.95Z" fill="#989FAF"/>
</svg>
